<svg width="37" height="36" viewBox="0 0 37 36" fill="none" xmlns="http://www.w3.org/2000/svg">
<mask id="mask0_5_1724" style="mask-type:alpha" maskUnits="userSpaceOnUse" x="0" y="0" width="37" height="36">
<rect x="0.5" width="36" height="36" fill="#D9D9D9"/>
</mask>
<g mask="url(#mask0_5_1724)">
<path d="M17.15 28.5H19.775V26.625C21.025 26.4 22.1 25.9125 23 25.1625C23.9 24.4125 24.35 23.3 24.35 21.825C24.35 20.775 24.05 19.8125 23.45 18.9375C22.85 18.0625 21.65 17.3 19.85 16.65C18.35 16.15 17.3125 15.7125 16.7375 15.3375C16.1625 14.9625 15.875 14.45 15.875 13.8C15.875 13.15 16.1063 12.6375 16.5688 12.2625C17.0313 11.8875 17.7 11.7 18.575 11.7C19.375 11.7 20 11.8938 20.45 12.2812C20.9 12.6687 21.225 13.15 21.425 13.725L23.825 12.75C23.55 11.875 23.0438 11.1125 22.3063 10.4625C21.5688 9.8125 20.75 9.45 19.85 9.375V7.5H17.225V9.375C15.975 9.65 15 10.2 14.3 11.025C13.6 11.85 13.25 12.775 13.25 13.8C13.25 14.975 13.5937 15.925 14.2812 16.65C14.9688 17.375 16.05 18 17.525 18.525C19.1 19.1 20.1938 19.6125 20.8063 20.0625C21.4188 20.5125 21.725 21.1 21.725 21.825C21.725 22.65 21.4313 23.2562 20.8438 23.6437C20.2562 24.0312 19.55 24.225 18.725 24.225C17.9 24.225 17.1688 23.9687 16.5312 23.4562C15.8937 22.9437 15.425 22.175 15.125 21.15L12.65 22.125C13 23.325 13.5438 24.2938 14.2812 25.0312C15.0187 25.7687 15.975 26.275 17.15 26.55V28.5ZM18.5 33C16.425 33 14.475 32.6062 12.65 31.8187C10.825 31.0312 9.2375 29.9625 7.8875 28.6125C6.5375 27.2625 5.46875 25.675 4.68125 23.85C3.89375 22.025 3.5 20.075 3.5 18C3.5 15.925 3.89375 13.975 4.68125 12.15C5.46875 10.325 6.5375 8.7375 7.8875 7.3875C9.2375 6.0375 10.825 4.96875 12.65 4.18125C14.475 3.39375 16.425 3 18.5 3C20.575 3 22.525 3.39375 24.35 4.18125C26.175 4.96875 27.7625 6.0375 29.1125 7.3875C30.4625 8.7375 31.5312 10.325 32.3187 12.15C33.1062 13.975 33.5 15.925 33.5 18C33.5 20.075 33.1062 22.025 32.3187 23.85C31.5312 25.675 30.4625 27.2625 29.1125 28.6125C27.7625 29.9625 26.175 31.0312 24.35 31.8187C22.525 32.6062 20.575 33 18.5 33ZM18.5 30C21.85 30 24.6875 28.8375 27.0125 26.5125C29.3375 24.1875 30.5 21.35 30.5 18C30.5 14.65 29.3375 11.8125 27.0125 9.4875C24.6875 7.1625 21.85 6 18.5 6C15.15 6 12.3125 7.1625 9.9875 9.4875C7.6625 11.8125 6.5 14.65 6.5 18C6.5 21.35 7.6625 24.1875 9.9875 26.5125C12.3125 28.8375 15.15 30 18.5 30Z" fill="black"/>
</g>
</svg>
